<?xml version="1.0" encoding="UTF-8"?>
<!DOCTYPE svg PUBLIC "-//W3C//DTD SVG 1.1//EN" "http://www.w3.org/Graphics/SVG/1.1/DTD/svg11.dtd">
<!-- Creator: CorelDRAW X8 -->
<svg xmlns="http://www.w3.org/2000/svg" xml:space="preserve" width="98.4883mm" height="26.2262mm" version="1.1" style="shape-rendering:geometricPrecision; text-rendering:geometricPrecision; image-rendering:optimizeQuality; fill-rule:evenodd; clip-rule:evenodd"
viewBox="0 0 68211 18164"
 xmlns:xlink="http://www.w3.org/1999/xlink">
 <defs>
  <style type="text/css">
   <![CDATA[
    .fil0 {fill:#66C3D0;fill-rule:nonzero}
   ]]>
  </style>
 </defs>
 <g id="Layer_x0020_1">
  <metadata id="CorelCorpID_0Corel-Layer"/>
  <path class="fil0" d="M2010 8777l0 -535 -1145 0c136,-2171 992,-4028 2569,-5571 1577,-1543 3468,-2349 5673,-2417 2341,-67 4367,704 6080,2315 187,170 365,348 534,535l-2849 2543c-933,-1051 -2094,-1577 -3485,-1577 -1306,0 -2417,462 -3333,1387 -915,924 -1373,2031 -1373,3320 0,915 246,1755 737,2518l-2085 1679c-374,-543 -670,-1128 -891,-1755 -288,-780 -432,-1594 -432,-2442zm7377 5469c1272,0 2417,-399 3434,-1196l2443 3053c-1696,1374 -3647,2061 -5851,2061 -543,0 -1082,-47 -1616,-140 -534,-94 -1056,-229 -1564,-407 -509,-178 -1001,-399 -1476,-662 -475,-263 -928,-572 -1361,-928 -432,-356 -827,-747 -1183,-1171 -1357,-1594 -2094,-3442 -2213,-5545l992 0c51,780 204,1535 458,2264 322,916 789,1747 1399,2493l331 407 2289 -1857 178 178c1052,967 2298,1450 3740,1450zm9644 -3536l-1348 305c-271,-983 -361,-2035 -267,-3154 93,-1120 369,-2137 827,-3053 135,-271 288,-534 457,-789 1086,-1679 2587,-2832 4503,-3459 2239,-747 4410,-585 6513,483 1000,509 1865,1187 2594,2035 730,848 1281,1806 1654,2875l-941 203c-255,-695 -611,-1348 -1069,-1959 -542,-729 -1204,-1339 -1984,-1831l-432 -280 -1552 2391c0,0 0,0 0,0 -1170,-593 -2370,-687 -3600,-280 -1229,408 -2137,1192 -2722,2354 -585,1161 -674,2353 -267,3574 288,899 806,1645 1552,2238l-1425 2188c-492,-373 -924,-805 -1297,-1297 -475,-628 -823,-1323 -1043,-2086l-153 -458zm14729 -3638c255,984 327,2027 217,3129 -111,1103 -395,2112 -853,3027 -508,1018 -1191,1896 -2047,2633 -857,738 -1819,1285 -2888,1641 -2255,729 -4435,560 -6538,-509 -1000,-508 -1861,-1178 -2582,-2009 -720,-831 -1267,-1781 -1640,-2850l890 -178c271,696 636,1340 1094,1934 542,729 1195,1340 1959,1831l457 306 1552 -2442c1170,576 2366,661 3587,254 1069,-339 1900,-975 2493,-1908 85,-136 170,-280 255,-432 576,-1154 661,-2349 254,-3587 -288,-882 -797,-1620 -1526,-2214l1399 -2162c492,373 916,806 1272,1297 492,628 848,1323 1068,2086l153 458 1424 -305zm15750 -4808c814,814 1446,1764 1895,2849 450,1086 674,2222 674,3409 0,1543 -356,2968 -1068,4274 -712,1306 -1683,2340 -2913,3104 -1229,763 -2565,1144 -4007,1144l-2365 0 0 -3816 2340 0c1136,0 2116,-466 2938,-1399 823,-933 1234,-2035 1234,-3307 0,-1408 -475,-2586 -1425,-3536 -797,-780 -1704,-1170 -2722,-1170l-2365 0 0 5571 -2366 0 0 -7886 -1476 0 0 -1501 6182 0c2086,0 3901,755 5444,2264zm-11193 280l0 7912 2366 0 0 7682 -3842 0 0 -15594 1476 0zm20023 9438l0 2162 8828 0 0 3842 -12669 0 0 -9489 1119 0 0 2238 3511 0 0 1247 -789 0zm9871 -7937l-8828 0 0 3053 8802 0 -1501 3790 -25 25 -6487 0 0 -1221 -3511 0 0 -2238 -1119 0 0 -7251 12669 0 0 3842z"/>
 </g>
</svg>
