<?xml version="1.0" encoding="UTF-8"?>
<!DOCTYPE svg PUBLIC "-//W3C//DTD SVG 1.1//EN" "http://www.w3.org/Graphics/SVG/1.1/DTD/svg11.dtd">
<!-- Creator: CorelDRAW X8 -->
<svg xmlns="http://www.w3.org/2000/svg" xml:space="preserve" width="182.756mm" height="47.2479mm" version="1.1" style="shape-rendering:geometricPrecision; text-rendering:geometricPrecision; image-rendering:optimizeQuality; fill-rule:evenodd; clip-rule:evenodd"
viewBox="0 0 18276 4725"
 xmlns:xlink="http://www.w3.org/1999/xlink">
 <defs>
  <style type="text/css">
   <![CDATA[
    .fil1 {fill:#FECC00}
    .fil2 {fill:#66C3D0}
    .fil3 {fill:#FEFEFE;fill-rule:nonzero}
    .fil0 {fill:#66C3D0;fill-rule:nonzero}
   ]]>
  </style>
 </defs>
 <g id="Layer_x0020_1">
  <metadata id="CorelCorpID_0Corel-Layer"/>
  <g id="_1560932045216">
   <path class="fil0" d="M8717 2102l0 -77 -165 0c19,-313 143,-582 371,-804 227,-223 500,-340 819,-349 338,-10 630,101 878,334 27,24 52,50 77,77l-412 367c-134,-151 -302,-227 -503,-227 -188,0 -349,66 -481,200 -132,133 -198,293 -198,479 0,132 35,254 106,364l-301 242c-54,-78 -97,-163 -129,-253 -41,-113 -62,-230 -62,-353zm1065 790c184,0 349,-58 496,-173l353 441c-245,198 -527,298 -845,298 -79,0 -156,-7 -233,-21 -78,-13 -153,-33 -226,-58 -74,-26 -145,-58 -213,-96 -69,-38 -134,-83 -197,-134 -62,-51 -119,-108 -171,-169 -196,-230 -302,-497 -319,-801l143 0c7,113 29,222 66,327 47,132 114,252 202,360l48 59 330 -268 26 25c152,140 332,210 540,210zm1393 -511l-195 44c-39,-142 -52,-293 -39,-455 14,-162 54,-309 120,-441 19,-39 41,-77 66,-114 157,-242 373,-409 650,-499 323,-108 637,-85 940,70 145,73 270,171 375,293 105,123 185,261 239,415l-136 30c-37,-101 -88,-195 -154,-283 -79,-105 -174,-193 -287,-264l-62 -41 -224 345c0,0 0,0 0,0 -169,-85 -343,-99 -520,-40 -178,59 -309,172 -393,340 -85,167 -98,340 -39,516 42,130 117,237 224,323l-205 316c-71,-54 -134,-116 -188,-187 -68,-91 -118,-191 -150,-302l-22 -66zm2126 -525c37,142 48,293 32,452 -16,159 -57,305 -123,437 -74,147 -172,274 -296,380 -124,107 -263,186 -417,237 -326,105 -640,81 -944,-73 -144,-74 -269,-171 -373,-291 -104,-120 -183,-257 -237,-411l129 -26c39,101 92,194 158,279 78,106 172,194 283,265l66 44 224 -353c169,84 341,96 518,37 154,-49 274,-141 360,-275 12,-20 24,-41 36,-63 84,-166 96,-339 37,-518 -42,-127 -115,-234 -220,-319l202 -313c71,54 132,117 183,188 71,90 123,191 155,301l22 66 205 -44zm2274 -694c118,117 209,254 274,411 65,157 97,321 97,492 0,223 -51,429 -154,617 -103,189 -243,338 -420,449 -178,110 -371,165 -579,165l-342 0 0 -551 338 0c164,0 306,-67 425,-202 118,-135 178,-294 178,-478 0,-203 -69,-373 -206,-510 -115,-113 -246,-169 -393,-169l-342 0 0 804 -341 0 0 -1138 -213 0 0 -217 892 0c302,0 564,109 786,327zm-1616 40l0 1143 342 0 0 1109 -555 0 0 -2252 213 0zm2891 1363l0 312 1275 0 0 555 -1829 0 0 -1370 161 0 0 323 507 0 0 180 -114 0zm1426 -1146l-1275 0 0 441 1271 0 -217 547 -3 4 -937 0 0 -177 -507 0 0 -323 -162 0 0 -1047 1830 0 0 555z"/>
   <g>
    <path class="fil1" d="M8032 2266c-38,78 -73,142 -121,210l-162 185c-68,62 -62,82 -182,164 -759,518 -1733,235 -2103,-469 -173,-329 -251,-737 -110,-1134 264,-744 1012,-1136 1741,-940 532,143 907,550 1028,1040 105,428 24,606 -91,944zm450 -499c-127,-235 -82,-111 -121,-362 -108,-704 -686,-1311 -1485,-1384 -288,-26 -586,22 -822,130 -124,57 -199,103 -300,171 -278,188 -499,498 -611,827 -169,495 -59,1216 333,1603 32,31 47,45 75,73 182,180 183,146 180,376 -1,128 -33,457 43,526 57,52 1158,256 1380,297 98,19 402,92 477,88 -12,-518 -39,-574 215,-572 789,5 437,-846 554,-1035 69,-112 216,-18 299,-99 118,-117 -157,-529 -217,-639z"/>
    <g>
     <path class="fil2" d="M6354 1872c-154,-64 -298,-128 -451,-218 166,-91 354,-161 535,-231l1 -244c-232,78 -626,302 -887,369l1 212c212,92 662,291 887,391l-4 -252 -82 -27z"/>
     <path class="fil2" d="M7213 1458c153,64 297,128 451,218 -166,90 -355,161 -536,231l-1 244c233,-78 626,-302 888,-370l-2 -212c-211,-92 -661,-290 -886,-390l3 252 83 27z"/>
     <polygon class="fil2" points="7048,1033 6885,990 6519,2346 6681,2389 "/>
    </g>
   </g>
   <path class="fil3" d="M903 3953c28,0 39,-11 44,-33 6,-22 11,-55 17,-99 21,-235 131,-744 323,-1527 131,-493 219,-810 262,-958 126,-455 197,-684 225,-695 27,-11 55,-22 87,-33 192,-71 362,-126 515,-165 148,-38 296,-54 438,-54 142,0 219,5 235,22 17,16 28,27 33,32 6,11 17,22 22,28 22,27 44,38 66,38 27,0 38,-11 38,-38 0,-17 -5,-33 -11,-49 -82,-159 -202,-252 -350,-274 -153,-17 -274,-28 -367,-28 -115,0 -230,11 -345,28 -202,33 -339,60 -399,82l-17 0c-22,0 -44,-6 -71,-22 -27,-11 -55,-16 -82,-16 -33,0 -66,22 -99,65 -38,50 -142,104 -312,176 -175,71 -372,169 -586,290 -219,126 -399,284 -542,476 -16,27 -27,49 -27,77 0,22 5,43 22,60 27,44 77,82 137,109 22,11 44,17 60,17 22,0 44,-11 71,-39 137,-125 362,-273 674,-432 126,-60 191,-93 208,-93 5,0 11,0 11,5 0,17 -6,44 -17,77 -16,33 -33,82 -55,148 -317,1067 -476,1916 -476,2551 0,88 11,148 27,175 17,28 44,55 88,71 38,17 77,28 110,28l43 0zm1960 772c39,-6 61,-22 61,-49 0,-17 -6,-33 -17,-50 -27,-38 -44,-186 -44,-443 0,-126 6,-247 11,-373l6 -60c5,-93 11,-180 22,-268 5,-49 16,-142 27,-268l22 -143c5,-82 16,-158 33,-241 11,-60 22,-120 27,-180 6,-60 22,-132 44,-225 11,-49 22,-98 27,-147l66 -296 137 -526c16,-60 33,-126 60,-191 22,-61 38,-126 55,-192 11,-38 22,-82 38,-120 11,-39 22,-83 33,-132 11,-49 27,-93 44,-137 27,-65 55,-131 71,-202 38,-104 60,-170 60,-192 11,-27 17,-55 17,-71 0,-60 -39,-120 -115,-170 -55,-33 -110,-49 -159,-49l-27 5c-22,6 -50,39 -77,99l-131 285 -28 65 -60 165 -115 339c-6,17 -6,27 -11,38 -5,17 -33,104 -77,274l-49 164 -33 176c-16,43 -33,126 -55,251l-32 154c-22,71 -39,148 -44,219 -6,11 -17,22 -33,27l-148 33 -219 60c-11,6 -22,6 -38,11 -17,6 -28,6 -44,11 -16,6 -27,6 -38,6 -11,0 -17,-6 -17,-11 0,-6 0,-17 0,-28 0,-5 6,-22 11,-44 6,-16 11,-38 17,-65 16,-88 38,-154 54,-192l66 -235c11,-61 22,-115 27,-170 6,-49 17,-99 28,-148 27,-131 44,-263 55,-394 5,-11 5,-27 11,-55 0,-22 0,-49 0,-76 0,-28 -6,-50 -17,-77 -60,-99 -153,-148 -274,-148 -16,0 -32,17 -49,44 -22,44 -38,87 -44,131 -22,93 -54,203 -93,329 -65,213 -109,378 -126,487l-33 137c-38,197 -65,438 -82,728 -11,55 -16,181 -16,383 0,110 5,219 16,329 6,76 28,148 72,208 65,71 158,109 273,109 39,-5 60,-22 77,-60 5,-16 11,-38 11,-55 0,-43 -22,-82 -60,-109l-6 0c-16,-6 -22,-17 -22,-33 0,-213 6,-378 22,-504l11 -22c60,0 121,-11 175,-38l197 -98 148 -66 11 -6 11 6 -5 11 0 71c-17,60 -22,126 -22,186l-6 88c-5,153 -11,257 -11,317 -11,88 -16,186 -16,301l5 121 -5 120c0,258 11,438 27,553 0,50 17,115 44,197 0,6 0,6 6,6 11,27 21,49 32,55 61,38 137,60 230,60zm707 -2409c16,0 71,-28 164,-77l246 -131c82,-49 170,-93 268,-137 94,-44 170,-77 225,-104 22,-17 82,-44 181,-82 93,-39 191,-82 295,-126 104,-38 208,-71 312,-99 33,-5 50,-27 50,-54l-6 -33c-16,-50 -49,-93 -93,-132 -27,-22 -55,-33 -88,-33 -120,11 -290,55 -509,132l-65 16 -252 82 -77 28c-49,11 -93,27 -142,49 16,-16 27,-33 44,-44l16 -5c246,-186 498,-362 766,-526 83,-60 165,-98 236,-115l16 0 55 11c33,0 49,-16 49,-55l0 -21c-16,-72 -49,-132 -109,-181 -28,-22 -60,-38 -99,-44 -71,0 -175,11 -301,27 -27,6 -55,11 -82,17l-148 27c-16,6 -33,6 -49,6 -88,22 -142,33 -159,33 -22,5 -44,5 -66,11 -38,5 -125,32 -273,76 -82,22 -159,55 -236,93 -49,17 -93,44 -142,93 -27,28 -38,50 -38,77 0,16 5,38 11,55 27,65 65,120 120,158 27,28 66,44 110,44l109 -22c49,-11 99,-27 148,-43 16,-11 38,-22 66,-28 21,-5 43,-11 65,-22l6 0c16,-11 33,-16 49,-22 66,-5 131,-27 192,-60 5,0 11,-5 22,-11 5,-5 21,-11 49,-11 -17,17 -39,33 -77,50 -115,82 -230,164 -345,240 -115,83 -219,170 -312,269 -60,65 -126,115 -208,153 -82,38 -148,99 -197,170 -11,22 -16,44 -16,60 0,16 0,27 5,38 33,93 93,154 181,192 11,5 22,11 33,11zm-170 843c27,0 49,-5 71,-16l203 -121 71 -49c11,-6 22,-11 27,-17 33,-21 77,-43 132,-71 49,-27 104,-55 158,-82 50,-27 104,-60 165,-87 60,-28 120,-50 186,-72 49,-16 98,-38 142,-60 38,-22 110,-44 203,-71 93,-38 191,-66 284,-88 28,-5 55,-16 82,-22 22,-5 44,-10 66,-10 22,0 38,0 55,5 16,5 27,11 33,11 27,0 44,-22 44,-60 -6,-39 -17,-66 -33,-93 -39,-82 -104,-132 -186,-154l-33 0c-50,0 -219,39 -509,110 -126,33 -258,71 -384,115l-191 60c-39,16 -77,27 -115,38 -44,17 -88,33 -132,61 -27,16 -54,27 -76,32 -39,17 -93,50 -165,99 -38,16 -82,49 -131,93 -71,55 -115,99 -137,131 -38,39 -60,77 -60,104 0,17 5,39 16,55 39,71 88,121 154,148 22,6 43,11 60,11z"/>
  </g>
 </g>
</svg>
