<?xml version="1.0" encoding="UTF-8"?>
<!DOCTYPE svg PUBLIC "-//W3C//DTD SVG 1.1//EN" "http://www.w3.org/Graphics/SVG/1.1/DTD/svg11.dtd">
<!-- Creator: CorelDRAW X8 -->
<svg xmlns="http://www.w3.org/2000/svg" xml:space="preserve" width="53.2155mm" height="47.2479mm" version="1.1" style="shape-rendering:geometricPrecision; text-rendering:geometricPrecision; image-rendering:optimizeQuality; fill-rule:evenodd; clip-rule:evenodd"
viewBox="0 0 1550 1376"
 xmlns:xlink="http://www.w3.org/1999/xlink">
 <defs>
  <style type="text/css">
   <![CDATA[
    .fil0 {fill:#FEFEFE;fill-rule:nonzero}
   ]]>
  </style>
 </defs>
 <g id="Layer_x0020_1">
  <metadata id="CorelCorpID_0Corel-Layer"/>
  <path class="fil0" d="M263 1151c8,0 11,-3 13,-10 1,-6 3,-16 5,-28 6,-69 38,-217 94,-445 38,-144 63,-236 76,-279 37,-132 58,-199 66,-202 7,-4 15,-7 25,-10 56,-21 105,-37 150,-48 43,-11 86,-16 127,-16 42,0 64,2 69,7 5,4 8,8 10,9 1,3 4,7 6,8 6,8 13,11 19,11 8,0 11,-3 11,-11 0,-5 -1,-9 -3,-14 -24,-46 -59,-74 -102,-80 -45,-5 -80,-8 -107,-8 -33,0 -67,3 -100,8 -59,10 -99,18 -117,24l-4 0c-7,0 -13,-2 -21,-6 -8,-4 -16,-5 -24,-5 -10,0 -19,6 -29,19 -11,14 -41,30 -91,51 -51,21 -108,49 -170,84 -64,37 -117,83 -158,139 -5,8 -8,14 -8,22 0,7 2,13 6,18 8,13 23,24 40,32 7,3 13,5 18,5 6,0 13,-4 20,-12 40,-36 106,-79 197,-125 36,-18 55,-28 60,-28 2,0 3,0 3,2 0,5 -1,13 -4,22 -5,10 -10,24 -16,43 -93,311 -139,558 -139,743 0,26 3,43 8,51 5,8 13,16 25,21 12,5 23,8 32,8l13 0zm571 225c11,-2 17,-7 17,-15 0,-4 -1,-9 -4,-14 -8,-11 -13,-54 -13,-129 0,-37 1,-72 3,-108l2 -18c1,-27 3,-53 6,-78 2,-14 5,-42 8,-78l6 -42c2,-24 5,-46 10,-70 3,-17 6,-35 8,-52 1,-18 6,-39 13,-66 3,-14 6,-28 8,-43l19 -86 40 -153c4,-17 9,-37 17,-56 6,-17 11,-36 16,-56 3,-11 6,-23 11,-35 3,-11 7,-24 10,-38 3,-14 8,-27 12,-40 8,-19 16,-38 21,-59 11,-30 18,-49 18,-56 3,-7 5,-15 5,-20 0,-18 -12,-35 -34,-50 -16,-9 -32,-14 -46,-14l-8 2c-7,1 -15,11 -22,28l-39 83 -8 19 -17 48 -34 99c-1,5 -1,8 -3,11 -2,5 -9,30 -22,80l-15 48 -9 51c-5,12 -10,36 -16,73l-10 45c-6,20 -11,43 -12,63 -2,4 -5,7 -10,8l-43 10 -64 17c-3,2 -6,2 -11,4 -5,1 -8,1 -13,3 -4,1 -8,1 -11,1 -3,0 -5,-1 -5,-3 0,-1 0,-5 0,-8 0,-1 2,-6 4,-12 1,-5 3,-12 4,-20 5,-25 11,-44 16,-55l19 -69c4,-17 7,-33 8,-49 2,-15 5,-29 8,-43 8,-39 13,-77 16,-115 2,-3 2,-8 3,-16 0,-6 0,-14 0,-22 0,-8 -1,-15 -4,-23 -18,-28 -45,-43 -80,-43 -5,0 -10,5 -14,13 -7,13 -12,25 -13,38 -6,27 -16,59 -27,96 -19,62 -32,110 -37,142l-9 40c-12,57 -20,127 -24,212 -4,16 -5,52 -5,111 0,32 1,64 5,96 1,22 8,43 20,60 19,21 47,32 80,32 11,-1 18,-6 22,-17 2,-5 4,-11 4,-16 0,-13 -7,-24 -18,-32l-2 0c-4,-2 -6,-5 -6,-10 0,-62 2,-110 6,-146l4 -7c17,0 35,-3 51,-11l57 -28 43 -20 3 -1 3 1 -1 4 0 20c-5,18 -7,37 -7,55l-1 25c-2,45 -3,75 -3,92 -3,26 -5,55 -5,88l2 35 -2 35c0,75 3,128 8,161 0,15 5,34 13,58 0,1 0,1 1,1 3,8 7,15 10,16 17,11 40,18 67,18zm205 -702c5,0 21,-8 48,-22l72 -38c24,-15 49,-27 78,-40 27,-13 50,-22 65,-30 7,-5 24,-13 53,-24 27,-11 56,-24 86,-37 30,-11 61,-21 91,-29 10,-1 14,-8 14,-16l-1 -9c-5,-15 -15,-27 -27,-38 -8,-7 -16,-10 -26,-10 -35,3 -84,16 -148,38l-19 5 -74 24 -22 8c-14,3 -27,8 -41,14 4,-4 8,-9 12,-12l5 -2c72,-54 145,-105 223,-153 24,-18 48,-29 69,-34l5 0 16 4c9,0 14,-5 14,-16l0 -7c-5,-20 -14,-38 -32,-52 -8,-7 -17,-11 -29,-13 -20,0 -51,3 -87,8 -8,1 -16,3 -24,5l-43 8c-5,1 -10,1 -15,1 -25,7 -41,10 -46,10 -6,1 -13,1 -19,3 -11,2 -37,10 -80,22 -24,7 -46,16 -68,27 -15,5 -27,13 -42,28 -8,7 -11,14 -11,22 0,5 2,11 3,16 8,19 20,35 35,46 8,8 20,13 32,13l32 -7c15,-3 29,-8 43,-12 5,-4 11,-7 19,-8 7,-2 13,-4 20,-7l1 0c5,-3 10,-4 14,-6 20,-2 39,-8 56,-18 2,0 3,-1 7,-3 1,-1 6,-3 14,-3 -5,5 -11,10 -22,14 -34,24 -67,48 -101,70 -33,24 -64,50 -91,79 -17,19 -36,33 -60,44 -24,11 -43,29 -58,50 -3,6 -4,12 -4,17 0,5 0,8 1,11 10,27 27,45 53,56 3,2 6,3 9,3zm-49 246c8,0 14,-2 21,-5l59 -35 20 -14c4,-2 7,-4 8,-5 10,-7 23,-13 39,-21 14,-8 30,-16 46,-24 14,-8 30,-17 48,-25 17,-8 35,-15 54,-21 14,-5 29,-11 41,-18 12,-6 32,-12 59,-20 27,-11 56,-19 83,-26 8,-1 16,-5 24,-6 7,-2 13,-3 19,-3 7,0 11,0 16,1 5,2 8,3 10,3 8,0 13,-6 13,-17 -2,-11 -5,-19 -10,-27 -11,-24 -30,-38 -54,-45l-10 0c-14,0 -64,11 -148,32 -37,10 -75,21 -112,34l-55 17c-12,5 -23,8 -34,11 -13,5 -25,10 -38,18 -8,5 -16,8 -22,9 -12,5 -28,15 -48,29 -11,5 -24,14 -39,27 -20,16 -33,29 -39,38 -12,12 -18,23 -18,31 0,4 2,11 5,16 11,20 25,35 44,43 7,1 13,3 18,3z"/>
 </g>
</svg>
